<svg width="128" height="128" viewBox="0 0 128 128" fill="none" xmlns="http://www.w3.org/2000/svg">
<mask id="path-2-outside-1_0_1" maskUnits="userSpaceOnUse" x="22" y="16" width="49" height="96" fill="black">
<rect fill="white" x="22" y="16" width="49" height="96"/>
<path d="M69.2549 58.3428L63.5977 64L69.2549 69.6572V109.51L24 64.2549L69.2549 19V58.3428ZM46.2549 60C44.0457 60 42.2549 61.7909 42.2549 64C42.2549 66.2091 44.0457 68 46.2549 68C48.464 68 50.2549 66.2091 50.2549 64C50.2549 61.7909 48.464 60 46.2549 60Z"/>
</mask>
<path d="M69.2549 58.3428L63.5977 64L69.2549 69.6572V109.51L24 64.2549L69.2549 19V58.3428ZM46.2549 60C44.0457 60 42.2549 61.7909 42.2549 64C42.2549 66.2091 44.0457 68 46.2549 68C48.464 68 50.2549 66.2091 50.2549 64C50.2549 61.7909 48.464 60 46.2549 60Z" fill="#FF8F00"/>
<path d="M69.2549 58.3428L69.962 59.0499L70.2549 58.757V58.3428H69.2549ZM63.5977 64L62.8905 63.2929L62.1834 64L62.8905 64.7071L63.5977 64ZM69.2549 69.6572H70.2549V69.243L69.962 68.9501L69.2549 69.6572ZM69.2549 109.51L68.5478 110.217L70.2549 111.924V109.51H69.2549ZM24 64.2549L23.2929 63.5478L22.5858 64.2549L23.2929 64.962L24 64.2549ZM69.2549 19H70.2549V16.5858L68.5478 18.2929L69.2549 19ZM69.2549 58.3428L68.5478 57.6357L62.8905 63.2929L63.5977 64L64.3048 64.7071L69.962 59.0499L69.2549 58.3428ZM63.5977 64L62.8905 64.7071L68.5478 70.3643L69.2549 69.6572L69.962 68.9501L64.3048 63.2929L63.5977 64ZM69.2549 69.6572H68.2549V109.51H69.2549H70.2549V69.6572H69.2549ZM69.2549 109.51L69.962 108.803L24.7071 63.5478L24 64.2549L23.2929 64.962L68.5478 110.217L69.2549 109.51ZM24 64.2549L24.7071 64.962L69.962 19.7071L69.2549 19L68.5478 18.2929L23.2929 63.5478L24 64.2549ZM69.2549 19H68.2549V58.3428H69.2549H70.2549V19H69.2549ZM46.2549 60V59C43.4935 59 41.2549 61.2386 41.2549 64H42.2549H43.2549C43.2549 62.3431 44.598 61 46.2549 61V60ZM42.2549 64H41.2549C41.2549 66.7614 43.4935 69 46.2549 69V68V67C44.598 67 43.2549 65.6569 43.2549 64H42.2549ZM46.2549 68V69C49.0163 69 51.2549 66.7614 51.2549 64H50.2549H49.2549C49.2549 65.6569 47.9117 67 46.2549 67V68ZM50.2549 64H51.2549C51.2549 61.2386 49.0163 59 46.2549 59V60V61C47.9117 61 49.2549 62.3431 49.2549 64H50.2549Z" fill="black" mask="url(#path-2-outside-1_0_1)"/>
<rect x="40.397" y="69.8026" width="1" height="6" transform="rotate(45 40.397 69.8026)" fill="black"/>
<rect x="51.7107" y="81.1163" width="1" height="6" transform="rotate(45 51.7107 81.1163)" fill="black"/>
<rect x="33.3259" y="65.56" width="1" height="4" transform="rotate(45 33.3259 65.56)" fill="black"/>
<rect x="63.0244" y="92.43" width="1" height="6" transform="rotate(45 63.0244 92.43)" fill="black"/>
<rect x="55.9534" y="88.1874" width="1" height="4" transform="rotate(45 55.9534 88.1874)" fill="black"/>
<rect x="67.2671" y="99.5011" width="1" height="4" transform="rotate(45 67.2671 99.5011)" fill="black"/>
<rect x="44.6397" y="76.8737" width="1" height="4" transform="rotate(45 44.6397 76.8737)" fill="black"/>
<rect x="36.8615" y="53.5392" width="6" height="1" transform="rotate(45 36.8615 53.5392)" fill="black"/>
<rect x="31.2046" y="59.196" width="4" height="1" transform="rotate(45 31.2046 59.196)" fill="black"/>
<rect x="48.1752" y="42.2254" width="6" height="1" transform="rotate(45 48.1752 42.2254)" fill="black"/>
<rect x="42.5183" y="47.8823" width="4" height="1" transform="rotate(45 42.5183 47.8823)" fill="black"/>
<rect x="59.4889" y="30.9117" width="6" height="1" transform="rotate(45 59.4889 30.9117)" fill="black"/>
<rect x="53.832" y="36.5686" width="4" height="1" transform="rotate(45 53.832 36.5686)" fill="black"/>
<rect x="65.1458" y="25.2549" width="4" height="1" transform="rotate(45 65.1458 25.2549)" fill="black"/>
</svg>
