<svg width="128" height="128" viewBox="0 0 128 128" fill="none" xmlns="http://www.w3.org/2000/svg">
<g clip-path="url(#clip0_0_1)">
<mask id="path-2-outside-1_0_1" maskUnits="userSpaceOnUse" x="5" y="-3" width="67" height="134" fill="black">
<rect fill="white" x="5" y="-3" width="67" height="134"/>
<path d="M71 55.6396L63 63.6396L71 71.6396V128L7 64L71 0V55.6396ZM38.4727 57.9824C35.3487 57.9827 32.8164 60.5156 32.8164 63.6396C32.8165 66.7636 35.3487 69.2966 38.4727 69.2969C41.5968 69.2969 44.1298 66.7638 44.1299 63.6396C44.1299 60.5155 41.5968 57.9824 38.4727 57.9824Z"/>
</mask>
<path d="M71 55.6396L63 63.6396L71 71.6396V128L7 64L71 0V55.6396ZM38.4727 57.9824C35.3487 57.9827 32.8164 60.5156 32.8164 63.6396C32.8165 66.7636 35.3487 69.2966 38.4727 69.2969C41.5968 69.2969 44.1298 66.7638 44.1299 63.6396C44.1299 60.5155 41.5968 57.9824 38.4727 57.9824Z" fill="#FF8F00"/>
<path d="M71 55.6396L71.7071 56.3468L72 56.0539V55.6396H71ZM63 63.6396L62.2929 62.9325L61.5858 63.6396L62.2929 64.3468L63 63.6396ZM71 71.6396H72V71.2254L71.7071 70.9325L71 71.6396ZM71 128L70.2929 128.707L72 130.414V128H71ZM7 64L6.29289 63.2929L5.58579 64L6.29289 64.7071L7 64ZM71 0H72V-2.41421L70.2929 -0.707107L71 0ZM38.4727 57.9824V56.9824H38.4726L38.4727 57.9824ZM32.8164 63.6396H31.8164V63.6397L32.8164 63.6396ZM38.4727 69.2969L38.4726 70.2969H38.4727V69.2969ZM44.1299 63.6396L45.1299 63.6397V63.6396H44.1299ZM71 55.6396L70.2929 54.9325L62.2929 62.9325L63 63.6396L63.7071 64.3468L71.7071 56.3468L71 55.6396ZM63 63.6396L62.2929 64.3468L70.2929 72.3468L71 71.6396L71.7071 70.9325L63.7071 62.9325L63 63.6396ZM71 71.6396H70V128H71H72V71.6396H71ZM71 128L71.7071 127.293L7.70711 63.2929L7 64L6.29289 64.7071L70.2929 128.707L71 128ZM7 64L7.70711 64.7071L71.7071 0.707107L71 0L70.2929 -0.707107L6.29289 63.2929L7 64ZM71 0H70V55.6396H71H72V0H71ZM38.4727 57.9824L38.4726 56.9824C34.7962 56.9827 31.8164 59.9635 31.8164 63.6396H32.8164H33.8164C33.8164 61.0678 35.9011 58.9826 38.4727 58.9824L38.4727 57.9824ZM32.8164 63.6396L31.8164 63.6397C31.8165 67.3158 34.7962 70.2966 38.4726 70.2969L38.4727 69.2969L38.4727 68.2969C35.9012 68.2967 33.8165 66.2115 33.8164 63.6396L32.8164 63.6396ZM38.4727 69.2969V70.2969C42.1491 70.2969 45.1298 67.3161 45.1299 63.6397L44.1299 63.6396L43.1299 63.6396C43.1298 66.2115 41.0445 68.2969 38.4727 68.2969V69.2969ZM44.1299 63.6396H45.1299C45.1299 59.9632 42.1491 56.9824 38.4727 56.9824V57.9824V58.9824C41.0446 58.9824 43.1299 61.0677 43.1299 63.6396H44.1299Z" fill="black" mask="url(#path-2-outside-1_0_1)"/>
<rect x="30.1889" y="71.8457" width="1.41421" height="8.48527" transform="rotate(45 30.1889 71.8457)" fill="black"/>
<rect x="46.1888" y="87.8456" width="1.41421" height="8.48527" transform="rotate(45 46.1888 87.8456)" fill="black"/>
<rect x="20.1889" y="65.8457" width="1.41421" height="5.65685" transform="rotate(45 20.1889 65.8457)" fill="black"/>
<rect x="62.1888" y="103.846" width="1.41421" height="8.48527" transform="rotate(45 62.1888 103.846)" fill="black"/>
<rect x="52.1888" y="97.8456" width="1.41421" height="5.65685" transform="rotate(45 52.1888 97.8456)" fill="black"/>
<rect x="68.1888" y="113.846" width="1.41421" height="5.65685" transform="rotate(45 68.1888 113.846)" fill="black"/>
<rect x="36.1889" y="81.8456" width="1.41421" height="5.65685" transform="rotate(45 36.1889 81.8456)" fill="black"/>
<rect x="25.1889" y="48.8457" width="8.48527" height="1.41421" transform="rotate(45 25.1889 48.8457)" fill="black"/>
<rect x="17.1889" y="56.8457" width="5.65685" height="1.41421" transform="rotate(45 17.1889 56.8457)" fill="black"/>
<rect x="41.1888" y="32.8457" width="8.48527" height="1.41421" transform="rotate(45 41.1888 32.8457)" fill="black"/>
<rect x="33.1889" y="40.8457" width="5.65685" height="1.41421" transform="rotate(45 33.1889 40.8457)" fill="black"/>
<rect x="57.1888" y="16.8457" width="8.48527" height="1.41421" transform="rotate(45 57.1888 16.8457)" fill="black"/>
<rect x="49.1888" y="24.8457" width="5.65685" height="1.41421" transform="rotate(45 49.1888 24.8457)" fill="black"/>
<rect x="65.1888" y="8.84573" width="5.65685" height="1.41421" transform="rotate(45 65.1888 8.84573)" fill="black"/>
</g>
<defs>
<clipPath id="clip0_0_1">
<path d="M0 8C0 3.58172 3.58172 0 8 0H120C124.418 0 128 3.58172 128 8V120C128 124.418 124.418 128 120 128H8C3.58172 128 0 124.418 0 120V8Z" fill="white"/>
</clipPath>
</defs>
</svg>
