<svg width="128" height="128" viewBox="0 0 128 128" fill="none" xmlns="http://www.w3.org/2000/svg">
<mask id="path-2-outside-1_0_1" maskUnits="userSpaceOnUse" x="65.1145" y="1" width="63" height="126" fill="black">
<rect fill="white" x="65.1145" y="1" width="63" height="126"/>
<path d="M66.1145 56.1621L73.6145 63.6621L66.1145 71.1621V124L126.114 64L66.1145 4V56.1621ZM96.6086 58.3584C99.5375 58.3585 101.911 60.7332 101.911 63.6621C101.911 66.591 99.5374 68.9657 96.6086 68.9658C93.6797 68.9658 91.3049 66.591 91.3049 63.6621C91.3049 60.7332 93.6797 58.3584 96.6086 58.3584Z"/>
</mask>
<path d="M66.1145 56.1621L65.4074 56.8692L65.1145 56.5763V56.1621H66.1145ZM73.6145 63.6621L74.3216 62.955L75.0287 63.6621L74.3216 64.3692L73.6145 63.6621ZM66.1145 71.1621H65.1145V70.7479L65.4074 70.455L66.1145 71.1621ZM66.1145 124L66.8216 124.707L65.1145 126.414V124H66.1145ZM126.114 64L126.822 63.2929L127.529 64L126.822 64.7071L126.114 64ZM66.1145 4H65.1145V1.58579L66.8216 3.29289L66.1145 4ZM96.6086 58.3584V57.3584H96.6086L96.6086 58.3584ZM101.911 63.6621H102.911V63.6621L101.911 63.6621ZM96.6086 68.9658L96.6086 69.9658H96.6086V68.9658ZM91.3049 63.6621L90.3049 63.6621V63.6621H91.3049ZM66.1145 56.1621L66.8216 55.455L74.3216 62.955L73.6145 63.6621L72.9074 64.3692L65.4074 56.8692L66.1145 56.1621ZM73.6145 63.6621L74.3216 64.3692L66.8216 71.8692L66.1145 71.1621L65.4074 70.455L72.9074 62.955L73.6145 63.6621ZM66.1145 71.1621H67.1145V124H66.1145H65.1145V71.1621H66.1145ZM66.1145 124L65.4074 123.293L125.407 63.2929L126.114 64L126.822 64.7071L66.8216 124.707L66.1145 124ZM126.114 64L125.407 64.7071L65.4074 4.70711L66.1145 4L66.8216 3.29289L126.822 63.2929L126.114 64ZM66.1145 4H67.1145V56.1621H66.1145H65.1145V4H66.1145ZM96.6086 58.3584L96.6086 57.3584C100.09 57.3585 102.911 60.1812 102.911 63.6621H101.911H100.911C100.911 61.2853 98.985 59.3585 96.6086 59.3584L96.6086 58.3584ZM101.911 63.6621L102.911 63.6621C102.911 67.143 100.09 69.9657 96.6086 69.9658L96.6086 68.9658L96.6086 67.9658C98.9849 67.9657 100.911 66.0389 100.911 63.6621L101.911 63.6621ZM96.6086 68.9658V69.9658C93.1274 69.9658 90.3049 67.1433 90.3049 63.6621L91.3049 63.6621L92.3049 63.6621C92.3049 66.0387 94.232 67.9658 96.6086 67.9658V68.9658ZM91.3049 63.6621H90.3049C90.3049 60.1809 93.1274 57.3584 96.6086 57.3584V58.3584V59.3584C94.232 59.3584 92.3049 61.2855 92.3049 63.6621H91.3049Z" fill="#FF8F00" mask="url(#path-2-outside-1_0_1)"/>
<rect width="1.32582" height="7.95494" transform="matrix(-0.707107 0.707107 0.707107 0.707107 104.375 71.3553)" fill="#FF8F00"/>
<rect width="1.32582" height="7.95494" transform="matrix(-0.707107 0.707107 0.707107 0.707107 89.3749 86.3553)" fill="#FF8F00"/>
<rect width="1.32582" height="5.3033" transform="matrix(-0.707107 0.707107 0.707107 0.707107 113.75 65.7303)" fill="#FF8F00"/>
<rect width="1.32582" height="7.95494" transform="matrix(-0.707107 0.707107 0.707107 0.707107 74.3749 101.355)" fill="#FF8F00"/>
<rect width="1.32582" height="5.3033" transform="matrix(-0.707107 0.707107 0.707107 0.707107 83.7499 95.7303)" fill="#FF8F00"/>
<rect width="1.32582" height="5.3033" transform="matrix(-0.707107 0.707107 0.707107 0.707107 68.7499 110.73)" fill="#FF8F00"/>
<rect width="1.32582" height="5.3033" transform="matrix(-0.707107 0.707107 0.707107 0.707107 98.7499 80.7303)" fill="#FF8F00"/>
<rect width="7.95494" height="1.32582" transform="matrix(-0.707107 0.707107 0.707107 0.707107 109.062 49.7928)" fill="#FF8F00"/>
<rect width="5.3033" height="1.32582" transform="matrix(-0.707107 0.707107 0.707107 0.707107 116.562 57.2928)" fill="#FF8F00"/>
<rect width="7.95494" height="1.32582" transform="matrix(-0.707107 0.707107 0.707107 0.707107 94.0624 34.7929)" fill="#FF8F00"/>
<rect width="5.3033" height="1.32582" transform="matrix(-0.707107 0.707107 0.707107 0.707107 101.562 42.2928)" fill="#FF8F00"/>
<rect width="7.95494" height="1.32582" transform="matrix(-0.707107 0.707107 0.707107 0.707107 79.0624 19.7929)" fill="#FF8F00"/>
<rect width="5.3033" height="1.32582" transform="matrix(-0.707107 0.707107 0.707107 0.707107 86.5624 27.2929)" fill="#FF8F00"/>
<rect width="5.3033" height="1.32582" transform="matrix(-0.707107 0.707107 0.707107 0.707107 71.5624 12.2929)" fill="#FF8F00"/>
<mask id="path-18-outside-2_0_1" maskUnits="userSpaceOnUse" x="0" y="1" width="63" height="126" fill="black">
<rect fill="white" y="1" width="63" height="126"/>
<path d="M62 56.1621L54.5 63.6621L62 71.1621V124L2 64L62 4V56.1621ZM31.5059 58.3584C28.577 58.3585 26.2031 60.7332 26.2031 63.6621C26.2031 66.591 28.577 68.9657 31.5059 68.9658C34.4348 68.9658 36.8095 66.591 36.8096 63.6621C36.8096 60.7332 34.4348 58.3584 31.5059 58.3584Z"/>
</mask>
<path d="M62 56.1621L54.5 63.6621L62 71.1621V124L2 64L62 4V56.1621ZM31.5059 58.3584C28.577 58.3585 26.2031 60.7332 26.2031 63.6621C26.2031 66.591 28.577 68.9657 31.5059 68.9658C34.4348 68.9658 36.8095 66.591 36.8096 63.6621C36.8096 60.7332 34.4348 58.3584 31.5059 58.3584Z" fill="#FF8F00"/>
<path d="M62 56.1621L62.7071 56.8692L63 56.5763V56.1621H62ZM54.5 63.6621L53.7929 62.955L53.0858 63.6621L53.7929 64.3692L54.5 63.6621ZM62 71.1621H63V70.7479L62.7071 70.455L62 71.1621ZM62 124L61.2929 124.707L63 126.414V124H62ZM2 64L1.29289 63.2929L0.585786 64L1.29289 64.7071L2 64ZM62 4H63V1.58579L61.2929 3.29289L62 4ZM31.5059 58.3584V57.3584H31.5058L31.5059 58.3584ZM26.2031 63.6621H25.2031V63.6621L26.2031 63.6621ZM31.5059 68.9658L31.5058 69.9658H31.5059V68.9658ZM36.8096 63.6621L37.8096 63.6621V63.6621H36.8096ZM62 56.1621L61.2929 55.455L53.7929 62.955L54.5 63.6621L55.2071 64.3692L62.7071 56.8692L62 56.1621ZM54.5 63.6621L53.7929 64.3692L61.2929 71.8692L62 71.1621L62.7071 70.455L55.2071 62.955L54.5 63.6621ZM62 71.1621H61V124H62H63V71.1621H62ZM62 124L62.7071 123.293L2.70711 63.2929L2 64L1.29289 64.7071L61.2929 124.707L62 124ZM2 64L2.70711 64.7071L62.7071 4.70711L62 4L61.2929 3.29289L1.29289 63.2929L2 64ZM62 4H61V56.1621H62H63V4H62ZM31.5059 58.3584L31.5058 57.3584C28.0245 57.3585 25.2031 60.1812 25.2031 63.6621H26.2031H27.2031C27.2031 61.2853 29.1295 59.3585 31.5059 59.3584L31.5059 58.3584ZM26.2031 63.6621L25.2031 63.6621C25.2031 67.143 28.0245 69.9657 31.5058 69.9658L31.5059 68.9658L31.5059 67.9658C29.1295 67.9657 27.2031 66.0389 27.2031 63.6621L26.2031 63.6621ZM31.5059 68.9658V69.9658C34.9871 69.9658 37.8095 67.1433 37.8096 63.6621L36.8096 63.6621L35.8096 63.6621C35.8096 66.0387 33.8825 67.9658 31.5059 67.9658V68.9658ZM36.8096 63.6621H37.8096C37.8096 60.1809 34.9871 57.3584 31.5059 57.3584V58.3584V59.3584C33.8825 59.3584 35.8096 61.2855 35.8096 63.6621H36.8096Z" fill="black" mask="url(#path-18-outside-2_0_1)"/>
<rect x="23.7396" y="71.3553" width="1.32582" height="7.95494" transform="rotate(45 23.7396 71.3553)" fill="black"/>
<rect x="38.7395" y="86.3553" width="1.32582" height="7.95494" transform="rotate(45 38.7395 86.3553)" fill="black"/>
<rect x="14.3646" y="65.7303" width="1.32582" height="5.3033" transform="rotate(45 14.3646 65.7303)" fill="black"/>
<rect x="53.7395" y="101.355" width="1.32582" height="7.95494" transform="rotate(45 53.7395 101.355)" fill="black"/>
<rect x="44.3645" y="95.7303" width="1.32582" height="5.3033" transform="rotate(45 44.3645 95.7303)" fill="black"/>
<rect x="59.3645" y="110.73" width="1.32582" height="5.3033" transform="rotate(45 59.3645 110.73)" fill="black"/>
<rect x="29.3646" y="80.7303" width="1.32582" height="5.3033" transform="rotate(45 29.3646 80.7303)" fill="black"/>
<rect x="19.0521" y="49.7928" width="7.95494" height="1.32582" transform="rotate(45 19.0521 49.7928)" fill="black"/>
<rect x="11.5521" y="57.2928" width="5.3033" height="1.32582" transform="rotate(45 11.5521 57.2928)" fill="black"/>
<rect x="34.052" y="34.7929" width="7.95494" height="1.32582" transform="rotate(45 34.052 34.7929)" fill="black"/>
<rect x="26.552" y="42.2928" width="5.3033" height="1.32582" transform="rotate(45 26.552 42.2928)" fill="black"/>
<rect x="49.052" y="19.7929" width="7.95494" height="1.32582" transform="rotate(45 49.052 19.7929)" fill="black"/>
<rect x="41.552" y="27.2929" width="5.3033" height="1.32582" transform="rotate(45 41.552 27.2929)" fill="black"/>
<rect x="56.552" y="12.2929" width="5.3033" height="1.32582" transform="rotate(45 56.552 12.2929)" fill="black"/>
</svg>
